# xmcd
#
# Track frame offsets: 
#        150
#        27774
#        46722
#        73899
#        100226
#        121351
#        141259
#        156383
#
# Disc length: 2452 seconds
#
# Revision: 0
# Processed by: cddbd v1.5.1PL0 Copyright (c) Steve Scherf et al.
# Submitted via: ExactAudioCopy v0.95b3
#
DISCID=6c099208
DTITLE=88 Straight - 88 Straight Live at the Duck Race 05
DYEAR=2005
DGENRE=Blues Rock
TTITLE0=Walkin'
TTITLE1=Black Magic Woman
TTITLE2=Crazy 'bout an Automobile
TTITLE3=Mustang Sally
TTITLE4=Oh Mama Mama
TTITLE5=Money Honey
TTITLE6=Trouble in Mind
TTITLE7=Let the Good Times Roll
EXTD=
EXTT0=
EXTT1=
EXTT2=
EXTT3=
EXTT4=
EXTT5=
EXTT6=
EXTT7=
PLAYORDER=
